<?xml version="1.0" encoding="UTF-8" standalone="no"?>
<!-- Created with Inkscape (http://www.inkscape.org/) -->

<svg
   xmlns:dc="http://purl.org/dc/elements/1.1/"
   xmlns:cc="http://creativecommons.org/ns#"
   xmlns:rdf="http://www.w3.org/1999/02/22-rdf-syntax-ns#"
   xmlns:svg="http://www.w3.org/2000/svg"
   xmlns="http://www.w3.org/2000/svg"
   xmlns:sodipodi="http://sodipodi.sourceforge.net/DTD/sodipodi-0.dtd"
   xmlns:inkscape="http://www.inkscape.org/namespaces/inkscape"
   width="80.124901"
   height="80.03125"
   id="svg3339"
   version="1.1"
   inkscape:version="0.48.5 r10040"
   sodipodi:docname="andy-logo.svg">
  <defs
     id="defs3341" />
  <sodipodi:namedview
     id="base"
     pagecolor="#ffffff"
     bordercolor="#666666"
     borderopacity="1.0"
     inkscape:pageopacity="0.0"
     inkscape:pageshadow="2"
     inkscape:zoom="1.979899"
     inkscape:cx="71.283938"
     inkscape:cy="45.577413"
     inkscape:document-units="px"
     inkscape:current-layer="layer1"
     showgrid="false"
     fit-margin-top="0"
     fit-margin-left="0"
     fit-margin-right="0"
     fit-margin-bottom="0"
     inkscape:window-width="1536"
     inkscape:window-height="814"
     inkscape:window-x="-8"
     inkscape:window-y="19"
     inkscape:window-maximized="1" />
  <metadata
     id="metadata3344">
    <rdf:RDF>
      <cc:Work
         rdf:about="">
        <dc:format>image/svg+xml</dc:format>
        <dc:type
           rdf:resource="http://purl.org/dc/dcmitype/StillImage" />
        <dc:title />
      </cc:Work>
    </rdf:RDF>
  </metadata>
  <g
     inkscape:label="Layer 1"
     inkscape:groupmode="layer"
     id="layer1"
     transform="translate(-334.93755,-492.34375)">
    <path
       style="font-size:medium;font-style:normal;font-variant:normal;font-weight:normal;font-stretch:normal;text-indent:0;text-align:start;text-decoration:none;line-height:normal;letter-spacing:normal;word-spacing:normal;text-transform:none;direction:ltr;block-progression:tb;writing-mode:lr-tb;text-anchor:start;baseline-shift:baseline;color:#000000;fill:#a40000;fill-opacity:1;stroke:none;stroke-width:5.08308172000000000;marker:none;visibility:visible;display:inline;overflow:visible;enable-background:accumulate;font-family:Sans;-inkscape-font-specification:Sans"
       d="m 334.96875,492.34375 0,5.78125 0,0.375 0,31.6875 -0.0312,5.0625 0.0312,0 0,31.25 0,2.53125 5.0625,0 0,-2.53125 0,-31.21875 34.53125,0.125 0.21875,0.1875 36,32.875 4.25,3.90625 0,-5.78125 0,-31.0625 0.0312,-5.0625 -0.0312,0 0,-31.96875 0,-2.5625 -5.0625,0 0,2.5625 0,31.9375 -33.4375,-0.125 -37.3125,-34.0625 -4.25,-3.90625 z m 5.0625,11.53125 28.9375,26.40625 -28.9375,-0.0937 0,-26.3125 z m 42.125,31.5625 27.8125,0.0937 0,25.3125 -27.8125,-25.40625 z"
       id="path4193"
       inkscape:connector-curvature="0" />
  </g>
</svg>
