<?xml version="1.0" encoding="UTF-8" standalone="no"?>
<!-- Created with Inkscape (http://www.inkscape.org/) -->

<svg
   xmlns:dc="http://purl.org/dc/elements/1.1/"
   xmlns:cc="http://creativecommons.org/ns#"
   xmlns:rdf="http://www.w3.org/1999/02/22-rdf-syntax-ns#"
   xmlns:svg="http://www.w3.org/2000/svg"
   xmlns="http://www.w3.org/2000/svg"
   xmlns:sodipodi="http://sodipodi.sourceforge.net/DTD/sodipodi-0.dtd"
   xmlns:inkscape="http://www.inkscape.org/namespaces/inkscape"
   width="1271.7865"
   height="287.06894"
   id="svg4175"
   version="1.1"
   inkscape:version="0.48.5 r10040"
   sodipodi:docname="civichero.svg">
  <defs
     id="defs4177" />
  <sodipodi:namedview
     id="base"
     pagecolor="#ffffff"
     bordercolor="#666666"
     borderopacity="1.0"
     inkscape:pageopacity="0.0"
     inkscape:pageshadow="2"
     inkscape:zoom="0.49497475"
     inkscape:cx="261.92891"
     inkscape:cy="-10.52398"
     inkscape:document-units="px"
     inkscape:current-layer="layer1"
     showgrid="false"
     fit-margin-left="0.1"
     fit-margin-top="0.1"
     fit-margin-right="0.1"
     fit-margin-bottom="0.1"
     inkscape:window-width="1536"
     inkscape:window-height="814"
     inkscape:window-x="-8"
     inkscape:window-y="19"
     inkscape:window-maximized="1" />
  <metadata
     id="metadata4180">
    <rdf:RDF>
      <cc:Work
         rdf:about="">
        <dc:format>image/svg+xml</dc:format>
        <dc:type
           rdf:resource="http://purl.org/dc/dcmitype/StillImage" />
        <dc:title />
      </cc:Work>
    </rdf:RDF>
  </metadata>
  <g
     inkscape:label="Layer 1"
     inkscape:groupmode="layer"
     id="layer1"
     transform="translate(767.32181,94.029423)">
    <g
       style="fill:#adadaf;fill-opacity:0.94117647"
       transform="matrix(2.847218,0,0,2.847218,243.35449,-93.929423)"
       id="g3328">
      <g
         style="fill:#adadaf;fill-opacity:0.94117647"
         id="g3330">
        <path
           style="fill:#adadaf;fill-opacity:0.94117647"
           inkscape:connector-curvature="0"
           d="m 54.169,100 c 0,-10.352 8.396,-18.747 18.752,-18.747 10.356,0 18.751,8.396 18.751,18.747"
           id="path3332" />
      </g>
      <g
         style="fill:#adadaf;fill-opacity:0.94117647"
         id="g3334">
        <circle
           d="m 29.167999,66.668999 c 0,5.75315 -4.663849,10.417 -10.417,10.417 -5.75315,0 -10.4169994,-4.66385 -10.4169994,-10.417 0,-5.75315 4.6638494,-10.417 10.4169994,-10.417 5.753151,0 10.417,4.66385 10.417,10.417 z"
           style="fill:#adadaf;fill-opacity:0.94117647"
           sodipodi:ry="10.417"
           sodipodi:rx="10.417"
           sodipodi:cy="66.668999"
           sodipodi:cx="18.750999"
           cx="18.750999"
           cy="66.668999"
           r="10.417"
           id="circle3336" />
      </g>
      <g
         style="fill:#adadaf;fill-opacity:0.94117647"
         id="g3338">
        <path
           style="fill:#adadaf;fill-opacity:0.94117647"
           inkscape:connector-curvature="0"
           d="M 0,100 C 0,89.648 8.397,81.253 18.751,81.253 c 10.358,0 18.751,8.396 18.751,18.747"
           id="path3340" />
      </g>
      <path
         style="fill:#adadaf;fill-opacity:0.94117647"
         inkscape:connector-curvature="0"
         d="M 68.753,51.812 53.539,41.668 h -3.536 c -5.296,0 -8.333,-3.035 -8.333,-8.334 V 8.333 C 41.669,3.039 44.707,0 50.002,0 h 33.336 c 5.294,0 8.334,3.039 8.334,8.333 v 25.001 c 0,5.299 -3.04,8.334 -8.334,8.334 H 68.753 V 51.812 z M 50.002,4.166 c -2.999,0 -4.167,1.168 -4.167,4.167 v 25.001 c 0,2.999 1.168,4.167 4.167,4.167 H 54.8 l 9.786,6.527 v -6.527 h 18.752 c 2.999,0 4.167,-1.168 4.167,-4.167 V 8.333 c 0,-2.999 -1.168,-4.167 -4.167,-4.167 H 50.002 z"
         id="path3342" />
      <path
         style="fill:#adadaf;fill-opacity:0.94117647"
         inkscape:connector-curvature="0"
         d="m 50.002,45.835 c -2.792,0 -5.213,-0.676 -7.169,-1.893 l -9.499,6.336 V 43.751 H 16.667 c -2.999,0 -4.167,-1.167 -4.167,-4.166 V 12.5 c 0,-2.999 1.168,-4.167 4.167,-4.167 h 20.834 c 0,-1.514 0.245,-2.885 0.618,-4.167 H 16.667 c -5.296,0 -8.333,3.04 -8.333,8.334 v 27.085 c 0,5.298 3.038,8.333 8.333,8.333 h 12.5 V 58.063 L 44.382,47.918 h 1.453 c 2.58,0 4.613,-0.732 6.031,-2.083 h -1.864 z"
         id="path3344" />
      <path
         style="fill:#adadaf;fill-opacity:0.94117647"
         inkscape:connector-curvature="0"
         d="m 27.084,33.424 c -1.15,0 -2.083,-0.932 -2.083,-2.083 v -4.257 c 0,-1.152 0.933,-2.083 2.083,-2.083 3.761,0 4.167,-2.914 4.167,-4.167 0,-2.295 -1.869,-4.167 -4.167,-4.167 -2.298,0 -4.167,1.872 -4.167,4.167 0,1.152 -0.933,2.083 -2.083,2.083 -1.151,0 -2.083,-0.932 -2.083,-2.083 0,-4.594 3.739,-8.333 8.333,-8.333 4.595,0 8.334,3.739 8.334,8.333 0,4.252 -2.438,7.317 -6.25,8.123 v 2.385 c 0,1.15 -0.933,2.082 -2.084,2.082 z"
         id="path3346" />
      <circle
         d="m 29.167999,37.500999 c 0,1.15041 -0.932591,2.083 -2.083,2.083 -1.150409,0 -2.083,-0.93259 -2.083,-2.083 0,-1.150409 0.932591,-2.082999 2.083,-2.082999 1.150409,0 2.083,0.93259 2.083,2.082999 z"
         style="fill:#adadaf;fill-opacity:0.94117647"
         sodipodi:ry="2.0829999"
         sodipodi:rx="2.0829999"
         sodipodi:cy="37.500999"
         sodipodi:cx="27.084999"
         cx="27.084999"
         cy="37.500999"
         r="2.0829999"
         id="circle3348" />
      <g
         style="fill:#adadaf;fill-opacity:0.94117647"
         id="g3350">
        <circle
           d="m 83.337997,66.668999 c 0,5.75315 -4.663849,10.417 -10.416999,10.417 -5.753151,0 -10.417,-4.66385 -10.417,-10.417 0,-5.75315 4.663849,-10.417 10.417,-10.417 5.75315,0 10.416999,4.66385 10.416999,10.417 z"
           style="fill:#adadaf;fill-opacity:0.94117647"
           sodipodi:ry="10.417"
           sodipodi:rx="10.417"
           sodipodi:cy="66.668999"
           sodipodi:cx="72.920998"
           cx="72.920998"
           cy="66.668999"
           r="10.417"
           id="circle3352" />
      </g>
      <circle
         transform="translate(39.839146,-4.9152617)"
         id="circle3354"
         r="2.0829999"
         cy="37.500999"
         cx="27.084999"
         sodipodi:cx="27.084999"
         sodipodi:cy="37.500999"
         sodipodi:rx="2.0829999"
         sodipodi:ry="2.0829999"
         style="fill:#adadaf;fill-opacity:0.94117647"
         d="m 29.167999,37.500999 c 0,1.15041 -0.932591,2.083 -2.083,2.083 -1.150409,0 -2.083,-0.93259 -2.083,-2.083 0,-1.150409 0.932591,-2.082999 2.083,-2.082999 1.150409,0 2.083,0.93259 2.083,2.082999 z" />
      <path
         sodipodi:nodetypes="cccscccc"
         inkscape:connector-curvature="0"
         id="path3356"
         d="m 66.923597,7.1898386 c -1.40927,0.3090631 -2.05829,1.2047339 -2.074376,2.2939058 -0.03301,2.1940256 0.05061,14.9436576 -0.01089,17.1176706 0,1.150411 0.934948,2.150043 2.085369,2.150043 1.150422,0 2.085369,-0.934959 2.085369,-2.085369 -0.1008,-2.096268 -0.0439,-15.022197 -0.0439,-17.151662 C 69.14545,8.2062659 67.861952,7.2184244 66.923702,7.1898386 z"
         style="fill:#adadaf;fill-opacity:0.94117647" />
    </g>
    <g
       style="fill:#adadaf;fill-opacity:0.94117647"
       transform="matrix(1.25,0,0,-1.25,-864.25375,1760.8099)"
       id="g3358">
      <path
         style="fill:#adadaf;fill-opacity:0.94117647"
         inkscape:connector-curvature="0"
         d="m 142.64857,1384.3451 h 15.30083 l 0,-107.0976 h 22.94849 v 91.7967 h 22.94849 v -91.7967 h 22.94849 v 91.7967 h 22.95124 v -91.7967 h 22.94849 v 107.0976 h 15.30083 c 4.22453,0 7.65042,3.4231 7.65042,7.6476 0,2.5529 -1.26405,4.7974 -3.18354,6.1854 l 0.006,0.016 -0.11016,0.074 c -0.0661,0.044 -0.13494,0.085 -0.20104,0.1295 l -73.00941,41.1602 v 12.0567 c 13.48048,-6.7471 24.57882,4.8772 42.07453,-2.115 v 26.6415 c -17.49847,6.9922 -28.5968,-4.6294 -42.07453,2.115 v 1.7102 c 0,2.115 -1.71294,3.8252 -3.82521,3.8252 -2.11226,0 -3.82521,-1.7102 -3.82521,-3.8252 v -40.4084 l -73.00941,-41.1575 c -0.0661,-0.044 -0.13494,-0.085 -0.20103,-0.1294 l -0.10741,-0.074 0.003,-0.016 c -1.91949,-1.388 -3.18079,-3.6324 -3.18079,-6.1853 -0.003,-4.2273 3.42313,-7.6504 7.64766,-7.6504 z"
         id="path3360" />
      <polygon
         style="fill:#adadaf;fill-opacity:0.94117647"
         points="26.389,77.778 20.833,83.333 79.167,83.333 73.611,77.778 "
         id="polygon3362"
         transform="matrix(2.753929,0,0,-2.753929,77.625552,1483.7922)" />
      <path
         style="fill:#adadaf;fill-opacity:0.94117647"
         inkscape:connector-curvature="0"
         d="m 280.34502,1376.6947 v -99.4472 h 3.16702 l 2.23894,-2.2417 15.30083,-15.3008 5.40872,-5.4087 h 46.55792 v 122.3984 h -72.67343 z m 30.60166,-80.3211 h -15.30083 v 22.9485 h 15.30083 v -22.9485 z m 0,38.2465 h -15.30083 v 22.9485 h 15.30083 v -22.9485 z m 26.77094,-38.2465 h -15.30083 v 22.9485 h 15.30083 v -22.9485 z m 0,38.2465 h -15.30083 v 22.9485 h 15.30083 v -22.9485 z"
         id="path3364" />
      <path
         style="fill:#adadaf;fill-opacity:0.94117647"
         inkscape:connector-curvature="0"
         d="m 147.13197,1277.2475 h 3.16701 v 99.4444 H 77.625552 v -122.3956 h 46.555168 l 5.40872,5.4087 15.30083,15.3008 2.2417,2.2417 z m -38.90751,19.1261 H 92.926382 v 22.9485 h 15.300828 v -22.9485 z m 0,38.2465 H 92.926382 v 22.9485 h 15.300828 v -22.9485 z m 26.77369,-38.2465 h -15.30082 v 22.9485 h 15.30082 v -22.9485 z m 0,38.2465 h -15.30082 v 22.9485 h 15.30082 v -22.9485 z"
         id="path3366" />
    </g>
    <g
       style="fill:#adadaf;fill-opacity:0.94117647"
       transform="matrix(4.3713309,0,0,4.3713309,-308.3796,-26.730798)"
       id="g3368">
      <polygon
         style="fill:#adadaf;fill-opacity:0.94117647"
         points="21.837,21.316 21.837,17.406 78.164,17.406 78.164,3.909 21.837,3.909 21.837,0 0,10.658 "
         id="polygon3370" />
      <polygon
         style="fill:#adadaf;fill-opacity:0.94117647"
         points="21.837,25.224 21.837,38.723 78.164,38.723 78.164,42.632 100,31.974 78.164,21.316 78.164,25.224 "
         id="polygon3372" />
    </g>
  </g>
</svg>
