<?xml version="1.0" encoding="UTF-8" standalone="no"?>
<svg
   xmlns:dc="http://purl.org/dc/elements/1.1/"
   xmlns:cc="http://creativecommons.org/ns#"
   xmlns:rdf="http://www.w3.org/1999/02/22-rdf-syntax-ns#"
   xmlns:svg="http://www.w3.org/2000/svg"
   xmlns="http://www.w3.org/2000/svg"
   xmlns:sodipodi="http://sodipodi.sourceforge.net/DTD/sodipodi-0.dtd"
   xmlns:inkscape="http://www.inkscape.org/namespaces/inkscape"
   viewBox="0 0 27.599645 27.599645"
   clip-rule="evenodd"
   stroke-miterlimit="1.414"
   id="svg2"
   version="1.1"
   inkscape:version="0.48.5 r10040"
   width="100%"
   height="100%"
   sodipodi:docname="copyleft.svg"
   style="fill-rule:evenodd;stroke-linejoin:round;stroke-miterlimit:1.41400003">
  <metadata
     id="metadata10">
    <rdf:RDF>
      <cc:Work
         rdf:about="">
        <dc:format>image/svg+xml</dc:format>
        <dc:type
           rdf:resource="http://purl.org/dc/dcmitype/StillImage" />
        <dc:title />
      </cc:Work>
    </rdf:RDF>
  </metadata>
  <defs
     id="defs8" />
  <sodipodi:namedview
     pagecolor="#ffffff"
     bordercolor="#666666"
     borderopacity="1"
     objecttolerance="10"
     gridtolerance="10"
     guidetolerance="10"
     inkscape:pageopacity="0"
     inkscape:pageshadow="2"
     inkscape:window-width="1536"
     inkscape:window-height="814"
     id="namedview6"
     showgrid="false"
     fit-margin-top="0"
     fit-margin-left="0"
     fit-margin-right="0"
     fit-margin-bottom="0"
     inkscape:zoom="14.75"
     inkscape:cx="11.210312"
     inkscape:cy="11.038247"
     inkscape:window-x="-8"
     inkscape:window-y="19"
     inkscape:window-maximized="1"
     inkscape:current-layer="text2987" />
  <g
     transform="scale(-1,1)"
     style="font-size:40px;font-style:normal;font-variant:normal;font-weight:normal;font-stretch:normal;line-height:125%;letter-spacing:0px;word-spacing:0px;fill:#000000;fill-opacity:1;stroke:none;font-family:Roboto Slab;-inkscape-font-specification:Roboto Slab"
     id="text2987">
    <path
       d="M -9.5367432e-7,13.799823 C -0.09752831,9.88239 -1.4425096,6.627435 -4.0349487,4.0349482 -6.6274385,1.4425077 -9.8823934,0.09752643 -13.799823,4.7683716e-7 -17.699785,0.09752643 -20.94974,1.4425079 -23.549698,4.0349488 c -2.59997,2.5924872 -3.949951,5.847442 -4.049948,9.7648742 0.1,3.899959 1.449979,7.149914 4.049948,9.749874 2.599958,2.599967 5.849913,3.949949 9.749875,4.049948 3.9174296,-0.1 7.1723843,-1.449981 9.7648737,-4.049948 2.5924388,-2.599961 3.93742019,-5.849915 4.03494834632568,-9.749874 z m -1.23998404632568,0 c -0.090861,3.550797 -1.3191773,6.50909 -3.6849534,8.874885 -2.365825,2.365805 -5.3241166,3.594121 -8.8748846,3.684953 -3.5508,-0.09083 -6.509092,-1.319148 -8.874886,-3.684953 -2.365808,-2.365796 -3.594124,-5.324088 -3.684953,-8.874885 0.09083,-3.550771 1.319146,-6.5090634 3.684953,-8.8748862 2.365795,-2.3657784 5.324087,-3.5940945 8.874886,-3.6849523 3.550768,0.090858 6.5090606,1.3191741 8.8748852,3.6849529 2.3657757,2.3658232 3.5940921,5.3241156 3.6849528,8.8748856 z m -7.6399016,4.879937 c -0.5366803,0.709166 -1.2333374,1.270824 -2.0899744,1.684978 -0.856673,0.414167 -1.773327,0.625831 -2.749963,0.634992 -1.859991,-0.03916 -3.449969,-0.720818 -4.76994,-2.044974 -1.319993,-1.324141 -2.009983,-3.055783 -2.069972,-5.194933 0.05999,-2.189956 0.749981,-3.9299318 2.069974,-5.2199331 1.319971,-1.289964 2.909948,-1.9499547 4.769938,-1.9799739 0.959137,0.00752 1.870791,0.2125175 2.734964,0.6149918 0.864137,0.4025143 1.5657937,0.9575067 2.1049734,1.6649789 L -7.8798995,7.879899 c -0.700845,-0.8274696 -1.5391668,-1.4724609 -2.5149675,-1.934976 -0.975839,-0.4624726 -2.084157,-0.697469 -3.324957,-0.70499 -2.35915,0.050021 -4.32079,0.8600104 -5.884925,2.4299693 -1.564154,1.5699979 -2.37581,3.5999697 -2.434968,6.0899207 0.05916,2.491646 0.870814,4.528284 2.434969,6.109922 1.564135,1.581652 3.525774,2.398307 5.884924,2.449968 1.239967,-0.005 2.349951,-0.234992 3.329956,-0.689992 0.9799673,-0.454988 1.8299557,-1.104978 2.549968,-1.949974 z"
       style="text-align:start;line-height:125%;writing-mode:lr-tb;text-anchor:start;font-family:Proxima Nova Rg;-inkscape-font-specification:Proxima Nova Rg;fill:#0e2232;stroke:none;fill-opacity:1"
       id="path2984" />
  </g>
</svg>
